<svg xmlns="http://www.w3.org/2000/svg" viewBox="0 0 34.568 30.234"><g fill="#3B4455"><path d="M.49 15.141c.531-2.75 1.383-5.257 2.555-7.523 1.172-2.266 2.625-4.095 4.359-5.485 1.734-1.39 3.57-2.086 5.508-2.086 1.468 0 2.734.406 3.797 1.219 1.062.813 1.843 1.906 2.344 3.281.5 1.375.804 2.977.914 4.805.109 1.828-.055 3.758-.492 5.789-.563 2.75-1.43 5.258-2.602 7.523-1.172 2.266-2.625 4.094-4.359 5.484-1.734 1.391-3.555 2.086-5.461 2.086-1.938 0-3.508-.703-4.711-2.109-1.204-1.406-1.938-3.227-2.203-5.461-.266-2.234-.149-4.742.351-7.523zm3.844-.047c-.782 3.688-.899 6.836-.352 9.445.546 2.609 1.617 3.914 3.211 3.914 1.843 0 3.531-1.296 5.063-3.891 1.531-2.594 2.687-5.828 3.469-9.703.718-3.687.812-6.781.281-9.281-.532-2.5-1.594-3.75-3.188-3.75-1.813 0-3.5 1.266-5.063 3.797-1.562 2.531-2.703 5.688-3.421 9.469zM25.943 6.844c-.157-.094-.29-.273-.398-.539-.11-.265-.164-.476-.164-.633 0-.094.047-.188.141-.281 5.624-3.594 8.484-5.391 8.578-5.391h.094c.25 0 .375.297.375.891-.5 1.031-.938 2.5-1.313 4.406l-3.563 18.469c-.344 1.906-.5 3.297-.469 4.172.031.219.422.43 1.172.633.75.204 1.266.305 1.547.305.094 0 .094.281 0 .844-.032.25-.079.422-.141.516-2.875-.158-4.609-.236-5.202-.236-.438 0-2.141.078-5.109.234-.094-.125-.094-.382 0-.773s.188-.586.281-.586c.406 0 1.023-.101 1.852-.305.828-.203 1.289-.414 1.383-.633.25-.531.5-1.422.75-2.672l3.281-16.875c.188-.906.305-1.594.352-2.063s.039-.757-.023-.867c-.063-.109-.172-.164-.328-.164-.157 0-.422.094-.797.281s-.807.423-1.291.704c-.485.282-.82.469-1.008.563z"/></g></svg>