<svg xmlns="http://www.w3.org/2000/svg" viewBox="0 0 37.668 30.234"><g fill="#3B4455"><path d="M.49 15.141c.531-2.75 1.383-5.257 2.555-7.523 1.172-2.266 2.625-4.095 4.359-5.485 1.734-1.39 3.57-2.086 5.508-2.086 1.468 0 2.734.406 3.797 1.219 1.062.813 1.843 1.906 2.344 3.281.5 1.375.804 2.977.914 4.805.109 1.828-.055 3.758-.492 5.789-.563 2.75-1.43 5.258-2.602 7.523-1.172 2.266-2.625 4.094-4.359 5.484-1.734 1.391-3.555 2.086-5.461 2.086-1.938 0-3.508-.703-4.711-2.109-1.204-1.406-1.938-3.227-2.203-5.461-.266-2.234-.149-4.742.351-7.523zm3.844-.047c-.782 3.688-.899 6.836-.352 9.445.546 2.609 1.617 3.914 3.211 3.914 1.843 0 3.531-1.296 5.063-3.891 1.531-2.594 2.687-5.828 3.469-9.703.718-3.687.812-6.781.281-9.281-.532-2.5-1.594-3.75-3.188-3.75-1.813 0-3.5 1.266-5.063 3.797-1.562 2.531-2.703 5.688-3.421 9.469zM36.115 22.781c-.188.469-.571 1.446-1.148 2.93-.579 1.484-1.024 2.695-1.336 3.633-.188.5-.532.75-1.031.75h-14.297c-.188-.469-.234-.984-.141-1.547 3.844-3.469 7.242-7.023 10.195-10.664 2.953-3.64 4.679-6.742 5.18-9.305.312-1.688.171-2.992-.422-3.914-.594-.921-1.532-1.383-2.813-1.383-2.438 0-4.625 1.297-6.563 3.891-.157 0-.313-.101-.469-.305-.157-.203-.219-.352-.188-.445.156-.375.492-.883 1.008-1.523.516-.64 1.172-1.343 1.969-2.109.797-.766 1.796-1.422 3-1.969 1.204-.547 2.416-.821 3.634-.821 1.313 0 2.382.398 3.211 1.195.828.797 1.359 1.758 1.594 2.883s.226 2.313-.023 3.563c-.188 1-.555 2.055-1.102 3.164s-1.125 2.125-1.734 3.047c-.609.922-1.415 1.961-2.414 3.117-1 1.156-1.836 2.094-2.508 2.813-.672.719-1.579 1.61-2.719 2.672-1.141 1.063-1.922 1.781-2.344 2.156s-1.102.969-2.039 1.781c-.219.219-.219.328 0 .328h8.016c.343 0 .656-.023.938-.07s.546-.156.797-.328c.25-.171.445-.297.586-.375.141-.078.312-.281.516-.609.203-.328.328-.539.375-.633l.398-.82c.218-.453.359-.727.422-.82.188-.312.422-.469.703-.469.436-.001.686.062.749.186z"/></g></svg>