<svg xmlns="http://www.w3.org/2000/svg" viewBox="0 0 36.724 30.328"><g fill="#3B4455"><path d="M.49 15.141c.531-2.75 1.383-5.257 2.555-7.523 1.172-2.266 2.625-4.095 4.359-5.485 1.734-1.39 3.57-2.086 5.508-2.086 1.468 0 2.734.406 3.797 1.219 1.062.813 1.843 1.906 2.344 3.281.5 1.375.804 2.977.914 4.805.109 1.828-.055 3.758-.492 5.789-.563 2.75-1.43 5.258-2.602 7.523-1.172 2.266-2.625 4.094-4.359 5.484-1.734 1.391-3.555 2.086-5.461 2.086-1.938 0-3.508-.703-4.711-2.109-1.204-1.406-1.938-3.227-2.203-5.461-.266-2.234-.149-4.742.351-7.523zm3.844-.047c-.782 3.688-.899 6.836-.352 9.445.546 2.609 1.617 3.914 3.211 3.914 1.843 0 3.531-1.296 5.063-3.891 1.531-2.594 2.687-5.828 3.469-9.703.718-3.687.812-6.781.281-9.281-.532-2.5-1.594-3.75-3.188-3.75-1.813 0-3.5 1.266-5.063 3.797-1.562 2.531-2.703 5.688-3.421 9.469zM32.459 0c1.25 0 2.335.555 3.258 1.664.921 1.109 1.21 2.555.867 4.336-.281 1.375-.82 2.539-1.617 3.492-.797.954-1.868 1.898-3.211 2.836.625.25 1.219.586 1.781 1.008s1.102.961 1.617 1.617.882 1.461 1.102 2.414c.218.954.218 1.977 0 3.07-.563 2.969-1.985 5.36-4.266 7.172-2.282 1.813-4.875 2.719-7.781 2.719-2.469 0-4.266-.469-5.391-1.406-.094-.094-.157-.297-.188-.609-.032-.312-.032-.563 0-.75.156-.687.414-1.226.773-1.617.359-.391.789-.586 1.289-.586.281 0 .531.117.75.352.218.234.46.539.727.914.265.375.492.656.68.844.718.656 1.75.984 3.094.984.563 0 1.14-.117 1.734-.352.593-.234 1.195-.593 1.805-1.078.609-.484 1.164-1.188 1.664-2.109s.875-2.008 1.125-3.258c.375-1.844.132-3.406-.727-4.688-.86-1.281-2.024-1.922-3.492-1.922-1.063 0-2.032.11-2.906.328-.188-.312-.219-.719-.094-1.219.062-.188.125-.344.188-.469 2.093-.375 3.844-1.125 5.25-2.25s2.297-2.656 2.672-4.594c.218-1.062.023-2.008-.586-2.836-.609-.828-1.415-1.242-2.414-1.242-.625 0-1.235.117-1.828.352-.594.234-1.047.477-1.359.727-.313.25-.625.523-.938.82-.313.297-.5.461-.563.492-.125 0-.211-.148-.258-.445-.047-.297-.055-.555-.023-.773 1.031-1.25 2.109-2.219 3.234-2.906 1.126-.688 2.469-1.032 4.032-1.032z"/></g></svg>