<svg xmlns="http://www.w3.org/2000/svg" viewBox="0 0 37.735 30.516"><g fill="#3B4455"><path d="M.49 15.281c.531-2.75 1.383-5.257 2.555-7.523 1.172-2.266 2.625-4.094 4.359-5.485 1.734-1.39 3.57-2.086 5.508-2.086 1.468 0 2.734.406 3.797 1.219 1.062.813 1.843 1.906 2.344 3.281.5 1.375.804 2.977.914 4.805.109 1.828-.055 3.758-.492 5.789-.563 2.75-1.43 5.258-2.602 7.523-1.172 2.266-2.625 4.094-4.359 5.484-1.734 1.391-3.555 2.086-5.461 2.086-1.938 0-3.508-.703-4.711-2.109-1.204-1.406-1.938-3.227-2.203-5.461-.266-2.233-.149-4.741.351-7.523zm3.844-.047c-.782 3.688-.899 6.836-.352 9.445.546 2.609 1.617 3.914 3.211 3.914 1.843 0 3.531-1.296 5.063-3.891 1.531-2.594 2.687-5.828 3.469-9.703.718-3.687.812-6.781.281-9.281-.532-2.5-1.594-3.75-3.188-3.75-1.813 0-3.5 1.266-5.063 3.797-1.562 2.532-2.703 5.689-3.421 9.469zM19.006 22.078c-.125-.25-.125-.734 0-1.453l17.109-20.062c.343-.375.718-.563 1.125-.563.406 0 .563.157.469.469l-3.703 18.891h3.141c.281 0 .375.11.281.328-.188 1.031-.438 1.828-.75 2.391h-3.188l-1.594 8.203c-.125.156-.75.234-1.875.234-.563 0-.961-.023-1.195-.07s-.352-.148-.352-.305l1.594-8.063h-11.062zm14.015-15.187c.031-.063.031-.148 0-.258-.032-.109-.079-.164-.141-.164l-.094.094-10.311 12.234-.047.141c-.063.281.015.422.234.422h7.922l2.437-12.469z"/></g></svg>