<svg xmlns="http://www.w3.org/2000/svg" viewBox="0 0 278.362 278.362"><path fill="#00B9BC" d="M105.371 118.257c-1.4-1.2-3.125-1.766-5.175-1.766s-3.892.574-5.525 1.824c-1.633 1.25-2.45 3.024-2.45 5.024h15.25c0-2-.7-3.881-2.1-5.082z"/><path fill="#00B9BC" d="M122.82 130.257c0 1.3.5 2.352 1.5 3.034 1 .684 2.392 1.055 4.175 1.055s3.391-.485 4.724-1.485c1.333-1 2.049-2.335 2.049-4.035v-2.486h-6.398c-4.033-.001-6.05 1.385-6.05 3.917z"/><path fill="#00B9BC" d="M68.221 123.339h-8.952v10h9.702c2.167 0 3.825-.373 4.975-1.057 1.15-.683 1.725-2.185 1.725-4.084 0-3.1-2.484-4.859-7.45-4.859z"/><path fill="#00B9BC" d="M73.621 113.958c0-1.666-.517-2.826-1.55-3.559-1.034-.733-2.634-1.059-4.8-1.059h-8.001v9h7.952c4.265-.001 6.399-1.482 6.399-4.382z"/><path fill="#00B9BC" d="M89.539 170.525c0 .676.26 1.297.78 1.652s1.244.585 2.171.585c.927 0 1.892-.234 2.585-.754s1.194-1.195 1.194-2.08v-1.589h-3.584c-2.098 0-3.146.869-3.146 2.186z"/><path fill="#00B9BC" d="M139.181 0c-76.868 0-139.181 62.313-139.181 139.181 0 76.868 62.313 139.181 139.181 139.181 76.868 0 139.181-62.313 139.181-139.181 0-76.868-62.314-139.181-139.181-139.181zm40.088 112.339h3v-9h5v9h7v4h-7v13.786c0 1.267.584 2.275 1.25 3.025s1.726 1.125 2.926 1.125 2.412-.583 3.513-1.75l2.331 3.95c-1.967 1.767-4.111 2.65-6.494 2.65s-4.367-.825-6.05-2.475c-1.684-1.65-2.476-3.875-2.476-6.675v-13.636h-3v-4zm-49.924 4.036c-2.467 0-5.046.9-7.712 2.7l-2.506-3.5c3.232-2.566 6.897-3.85 10.997-3.85 3.133 0 5.939.792 7.923 2.375 1.983 1.583 3.223 4.075 3.223 7.475v16.764h-6v-3.164c-2 2.633-4.949 3.95-8.649 3.95-2.767 0-4.958-.783-6.774-2.35-1.817-1.566-2.675-3.658-2.675-6.275 0-2.616.992-4.743 2.926-6.043 1.933-1.3 4.575-2.118 7.875-2.118h7.299v-.664c-.003-3.532-1.994-5.3-5.927-5.3zm-66.076 58.964h-3v-14h3v14zm-.224-16.85c-.364.364-.798.546-1.3.546-.503 0-.936-.182-1.3-.546-.364-.364-.546-.797-.546-1.3s.182-.937.546-1.301c.364-.363.797-.546 1.3-.546.502 0 .936.183 1.3.546.364.364.546.798.546 1.301s-.182.936-.546 1.3zm12.766 15.613c-.953.788-2.175 1.183-3.666 1.183-1.005 0-2.05-.182-3.133-.546-1.083-.364-2.041-.875-2.873-1.534l1.404-2.262c1.612 1.213 3.172 1.819 4.68 1.819.659 0 1.179-.151 1.56-.454.381-.304.572-.689.572-1.157 0-.693-.919-1.317-2.756-1.872l-.312-.104c-2.877-.779-4.316-2.08-4.316-3.899 0-1.283.498-2.31 1.495-3.081.997-.771 2.292-1.157 3.887-1.157s3.103.468 4.524 1.404l-1.092 2.158c-1.127-.745-2.349-1.118-3.666-1.118-.693 0-1.257.126-1.69.377-.434.251-.65.628-.65 1.131 0 .451.225.78.676.988.312.155.75.303 1.313.441s1.062.277 1.495.416c.433.139.854.295 1.261.468.407.174.845.416 1.313.729.936.624 1.404 1.595 1.404 2.912s-.477 2.369-1.43 3.158zm3.41-38.819c-1.967 2.167-5.333 3.057-10.1 3.057h-14.852v-35h13.152c2.366 0 4.408.502 6.125 1.068 1.716.567 2.991 1.442 3.825 2.409 1.6 1.8 2.4 3.888 2.4 6.154 0 2.734-.867 4.795-2.6 6.127-.634.467-1.067.772-1.3.889-.233.117-.65.315-1.25.582 2.167.467 3.892 1.445 5.175 2.928 1.283 1.484 1.925 3.23 1.925 5.43 0 2.434-.834 4.49-2.5 6.356zm20.048 40.056h-3v-2.108c-1 1.369-2.702 2.054-4.626 2.054-1.439 0-2.643-.407-3.587-1.222s-1.423-1.902-1.423-3.264c0-1.36.5-2.575 1.505-3.251 1.005-.676 2.363-1.209 4.079-1.209h4.053v-.129c0-1.837-1.164-2.756-3.209-2.756-1.283 0-2.688.468-4.075 1.404l-1.335-1.82c1.681-1.334 3.57-2.002 5.702-2.002 1.629 0 3.149.412 4.181 1.235 1.031.823 1.736 2.119 1.736 3.887v9.181zm-8.724-39.931c-2.617-2.482-3.925-5.82-3.925-10.004 0-4.183 1.333-7.509 4-9.976 2.667-2.467 5.808-3.701 9.425-3.701 3.617 0 6.791 1.092 9.324 3.274 2.533 2.184 3.899 5.192 3.899 9.024v4.314h-21.047c.133 1 1.016 3.26 2.65 4.443 1.633 1.184 3.5 1.659 5.6 1.659 3.333 0 5.866-1.108 7.6-3.208l3.2 3.471c-2.867 2.967-6.6 4.436-11.2 4.436-3.734 0-6.909-1.248-9.526-3.732zm27.931 38.694c-.953.788-2.175 1.183-3.666 1.183-1.005 0-2.05-.182-3.133-.546-1.083-.364-2.041-.875-2.873-1.534l1.404-2.262c1.612 1.213 3.172 1.819 4.68 1.819.659 0 1.179-.151 1.56-.454.381-.304.572-.689.572-1.157 0-.693-.919-1.317-2.756-1.872l-.312-.104c-2.877-.779-4.316-2.08-4.316-3.899 0-1.283.498-2.31 1.495-3.081.997-.771 2.292-1.157 3.887-1.157s3.103.468 4.524 1.404l-1.092 2.158c-1.127-.745-2.349-1.118-3.666-1.118-.693 0-1.257.126-1.69.377-.434.251-.65.628-.65 1.131 0 .451.225.78.676.988.312.155.75.303 1.313.441s1.062.277 1.495.416c.433.139.854.295 1.261.468.407.174.845.416 1.313.729.936.624 1.404 1.595 1.404 2.912s-.477 2.369-1.43 3.158zm9.893 1.183c-1.24 0-2.104-.429-2.979-1.287-.875-.857-1.12-2.015-1.12-3.471v-7.188h-2v-2h2v-4h3v4h3v2h-3v7.266c0 .658-.063 1.183.283 1.572.347.391.714.585 1.338.585s1.163-.303 1.734-.909l1.167 2.054c-1.023.919-2.185 1.378-3.423 1.378zm12.961-10.946c-1.439 0-2.381.285-3.109 1.221-.728.938-.951 2.012-.951 3.589v6.19h-3v-14h3v2.688c0-.867.964-1.577 1.771-2.132.806-.555 1.589-.659 2.491-.677l-.044 3.121h-.158zm15.939 11h-3v-2.785c-1 .85-1.214 1.518-2.037 2.003s-1.762.728-2.715.728c-1.56 0-2.832-.477-3.794-1.43s-1.454-2.331-1.454-4.135v-8.381h3v7.497c0 2.548.999 3.822 3.114 3.822 1.005 0 1.951-.334 2.697-1.001.746-.667 1.189-1.643 1.189-2.925v-7.394h3v14.001zm-6.212-38.964c-1.85-1.833-2.788-4.483-2.788-7.95v-16.086h6v14.386c0 4.9 1.834 7.35 5.9 7.35 1.934 0 3.566-.642 5-1.925 1.433-1.283 2.1-3.158 2.1-5.625v-14.186h5v26h-5v-4.464c-1 1.634-2.191 2.917-3.774 3.85-1.584.934-3.317 1.4-5.149 1.4-3.001 0-5.439-.916-7.289-2.75zm23.212 36.934c0 2.443-.805 4.276-2.131 5.499-1.326 1.222-3.1 1.833-5.18 1.833s-3.997-.65-5.678-1.95l1.36-2.21c1.352 1.022 2.708 1.534 4.086 1.534s2.498-.355 3.305-1.066c.806-.711 1.237-1.846 1.237-3.406v-1.768c-1 .814-1.086 1.465-1.893 1.95-.805.485-1.728.728-2.732.728-1.838 0-3.354-.641-4.533-1.924-1.179-1.282-1.771-2.877-1.771-4.784 0-1.906.587-3.501 1.766-4.784 1.179-1.282 2.779-1.924 4.608-1.924 1.828 0 3.556.754 4.556 2.262v-1.959h3v11.969zm17 0c0 2.443-.803 4.276-2.129 5.499-1.326 1.222-3.1 1.833-5.18 1.833s-3.995-.65-5.676-1.95l1.36-2.21c1.352 1.022 2.708 1.534 4.086 1.534s2.496-.355 3.303-1.066c.806-.711 1.235-1.846 1.235-3.406v-1.768c0 .814-1.084 1.465-1.891 1.95-.805.485-1.727.728-2.731.728-1.838 0-3.354-.641-4.532-1.924-1.179-1.282-1.771-2.877-1.771-4.784 0-1.906.587-3.501 1.766-4.784 1.179-1.282 2.777-1.924 4.606-1.924 1.828 0 3.554.754 4.554 2.262v-1.959h3v11.969zm7 2.03h-3v-20h3v20zm17-6h-10.917c.069 1 .528 1.863 1.378 2.479s1.82.947 2.912.947c1.733 0 3.051-.534 3.952-1.626l1.664 1.825c-1.491 1.543-3.432 2.317-5.824 2.317-1.941 0-3.593-.645-4.953-1.936-1.36-1.292-2.041-3.024-2.041-5.199 0-2.176.693-3.903 2.08-5.187 1.387-1.282 3.021-1.924 4.901-1.924s3.518.568 4.834 1.703c1.318 1.136 2.014 2.7 2.014 4.693v1.908zm-2.1-25.506c-.768 1.733-1.867 3.047-3.3 4.047-1.434 1-3.018 1.473-4.75 1.473-2.434 0-4.634-.897-6.601-2.664l2.55-4.557c1.167 1.1 2.375 1.646 3.625 1.646s2.267-.452 3.051-1.352c.782-.9 1.175-1.777 1.175-2.844 0-.467-3.584-9.244-10.75-27.244h6l7.95 19.6 7.949-19.6h6l-12.899 31.495z"/><path fill="#00B9BC" d="M208.5 163.533c-1.066 0-2.024.422-2.873 1.07-.85.65-1.274 1.736-1.274 2.736h7.931c0-1-.364-2.15-1.093-2.775-.729-.623-1.626-1.031-2.691-1.031z"/><path fill="#00B9BC" d="M184.074 163.376c-1.18 0-2.119.425-2.821 1.274s-1.053 1.842-1.053 2.977c0 1.136.351 2.115 1.053 2.938s1.646 1.234 2.834 1.234c1.187 0 2.149-.398 2.886-1.195.736-.798 1.105-1.79 1.105-2.978 0-1.187-.373-2.192-1.118-3.016-.747-.821-1.709-1.234-2.886-1.234z"/><path fill="#00B9BC" d="M167.07 163.376c-1.18 0-2.119.425-2.821 1.274s-1.053 1.842-1.053 2.977c0 1.136.351 2.115 1.053 2.938s1.646 1.234 2.834 1.234c1.187 0 2.149-.398 2.886-1.195.736-.798 1.105-1.79 1.105-2.978 0-1.187-.373-2.192-1.118-3.016-.747-.821-1.708-1.234-2.886-1.234z"/></svg>