<svg xmlns="http://www.w3.org/2000/svg" viewBox="0 0 278.3 60" enable-background="new 0 0 278.3 60"><path fill="#3b4455" d="M225.2 58.1c1.8-1.2 3.1-2.9 4.1-5.1l15.9-39h-7.4L228 38.2 218.1 14h-7.4c8.9 22 13.3 33.2 13.3 33.8 0 1.3-.5 2.5-1.5 3.6s-2.2 1.7-3.8 1.7c-1.5 0-3-.7-4.5-2l-3.2 5.6c2.4 2.2 5.1 3.3 8.2 3.3 2.2 0 4.2-.6 6-1.9M200.3 7.6c.8-.9 2-1.4 3.5-1.4s2.9.7 4.3 2.2l2.8-4.9c-2.4-2.2-5.1-3.3-8.1-3.3-2.9 0-5.5 1-7.5 3.1-2.1 2-3.1 4.8-3.1 8.2V14H188v5.6h4.1v27.3h6.9V19.6h8.7V14H199v-2.7c.1-1.6.5-2.8 1.3-3.7M179 8.8c1.2 0 2.2-.4 3.1-1.3.9-.9 1.3-1.9 1.3-3.1 0-1.2-.4-2.2-1.3-3.1-.9-.9-2-1.3-3.1-1.3-1.2 0-2.2.4-3.1 1.3-.9.9-1.3 1.9-1.3 3.1 0 1.2.4 2.2 1.3 3.1.8.8 1.9 1.3 3.1 1.3m3.4 5.2h-6.9v32.9h6.9V14zm-14.6 5.6V14h-8.7V3.7h-6.9V14h-4.1v5.6h4.1v16.5c0 3.5 1 6.2 3.1 8.2 2.1 2 4.6 3.1 7.5 3.1 2.9 0 5.6-1.1 8.1-3.3l-2.8-4.9c-1.4 1.4-2.8 2.2-4.3 2.2s-2.6-.5-3.5-1.4c-.8-.9-1.2-2.2-1.2-3.7V19.6h8.7zm-34.9 19.2c-1.8 1.6-3.9 2.4-6.2 2.4-5 0-7.5-3-7.5-9.1V14h-6.9v20.1c0 4.3 1.1 7.6 3.4 9.8 2.3 2.3 5.3 3.4 9 3.4 2.3 0 4.4-.6 6.3-1.7 2-1.2 3.5-2.7 4.6-4.8v6h6.9V14h-6.9v17.8c0 3.1-.9 5.4-2.7 7m-38 .9c-1.6 1.2-3.6 1.9-5.8 1.9-2.2 0-3.9-.4-5.2-1.3-1.2-.8-1.9-2.1-1.9-3.7 0-3.1 2.5-4.7 7.5-4.7h7.8v2.8c.1 2.1-.7 3.7-2.4 5m9.4-14c0-4.2-1.2-7.3-3.7-9.2-2.5-2-5.6-2.9-9.5-2.9-5.1 0-9.6 1.6-13.6 4.8l3.1 4.3c3.3-2.2 6.5-3.3 9.5-3.3 4.9 0 7.3 2.2 7.3 6.6v1.2h-9c-4.1 0-7.3.8-9.7 2.4-2.4 1.6-3.6 4-3.6 7.3 0 3.2 1.1 5.8 3.4 7.8 2.2 1.9 5.1 2.9 8.5 2.9 4.6 0 8.2-1.6 10.9-4.9v4.4h6.3V25.7zm-56-3.9c2-1.5 4.3-2.3 6.8-2.3s4.7.7 6.4 2.2c1.7 1.5 2.6 3.6 2.6 6.4H45.3c0-2.7 1-4.8 3-6.3M71 28.7c0-4.7-1.6-8.5-4.7-11.2-3.1-2.7-6.9-4-11.4-4s-8.4 1.5-11.6 4.6c-3.3 3-4.9 7.2-4.9 12.3s1.6 9.3 4.9 12.4c3.2 3.1 7.2 4.6 11.8 4.6 5.7 0 10.3-1.8 13.8-5.5l-4-4.3c-2.1 2.6-5.3 3.9-9.4 3.9-2.6 0-4.9-.7-6.9-2.2-2-1.5-3.1-3.4-3.3-5.8H71v-4.8zm-61.4-6c1.9-2.1 4.2-3.1 7-3.1s5.1 1 7.1 3.1 3 4.7 3 7.8c0 3.2-1 5.7-3 7.7s-4.4 3-7.1 3c-2.7 0-5-1-6.9-3-1.9-2-2.8-4.6-2.8-7.7-.1-3.1.8-5.7 2.7-7.8m-2.7-2.9V1.1H0v45.8h6.9V42c3.3 3.6 7 5.4 11.2 5.4 4.1 0 7.8-1.6 10.9-4.8 3.1-3.2 4.7-7.3 4.7-12.4 0-5.1-1.6-9.1-4.7-12.2-3.1-3-6.9-4.6-11.3-4.6s-8.1 2.2-10.8 6.4M278.3 38c0-2.6-.9-4.7-2.7-6.5-1.8-1.8-4-2.7-6.7-2.7s-4.9.9-6.7 2.7c-1.8 1.8-2.7 3.9-2.7 6.5s.9 4.7 2.7 6.5c1.8 1.8 4 2.7 6.7 2.7s4.9-.9 6.7-2.7c1.8-1.8 2.7-3.9 2.7-6.5m-15 0c0-1.7.5-3.1 1.6-4.2s2.4-1.6 4-1.6 3 .5 4 1.6c1.1 1.1 1.6 2.5 1.6 4.2 0 1.7-.5 3.1-1.6 4.2s-2.4 1.6-4 1.6-3-.5-4-1.6-1.6-2.5-1.6-4.2M254 26.3c.6 0 1.2-.2 1.7-.7.5-.5.7-1 .7-1.7 0-.6-.2-1.2-.7-1.7-.5-.5-1-.7-1.7-.7-.6 0-1.2.2-1.7.7-.5.5-.7 1-.7 1.7 0 .6.2 1.2.7 1.7.5.5 1.1.7 1.7.7m1.8 2.9h-3.7v17.7h3.7V29.2zm-10.7 18c.7 0 1.3-.2 1.8-.7.5-.5.7-1.1.7-1.8s-.2-1.3-.7-1.8c-.5-.5-1.1-.7-1.8-.7s-1.3.2-1.8.7c-.5.5-.7 1.1-.7 1.8s.2 1.3.7 1.8c.5.4 1.1.7 1.8.7"/></svg>