<svg xmlns="http://www.w3.org/2000/svg" viewBox="0 0 1190 421"><path fill="#FDD633" d="M779.368 117.172c1.789-8.68-3.718-17.216-12.403-19.126-8.682-1.912-17.266 3.521-19.287 12.15l31.69 6.976z"/><path fill="#F7A349" d="M794.734 88.597c-7.862-4.093-17.577-1.128-21.787 6.703-4.214 7.832-1.333 17.569 6.417 21.875l15.37-28.578z"/><path fill="#F98B0F" d="M779.37 117.162c1.459-7.102-1.968-14.101-8.022-17.456-1.402 6.776 1.67 13.937 8.009 17.462l.009.002.004-.008z"/><path fill="#C5D556" d="M826.896 144.42c7.069-5.721 8.259-16.077 2.612-23.248-5.641-7.17-15.986-8.446-23.208-2.92l20.596 26.168z"/><path fill="#00B9BC" d="M857.688 131.758c-3.571-8.365-13.207-12.338-21.647-8.869-8.439 3.468-12.496 13.067-9.151 21.529l30.798-12.66z"/><path fill="#009C41" d="M826.903 144.414c5.781-4.686 7.618-12.468 5.002-19.07-5.524 4.463-7.751 12.141-5.019 19.065l.007.009.01-.004z"/><path fill="#E83A84" d="M828.396 96.772c10.619-8.281 12.655-23.583 4.486-34.35-8.161-10.763-23.443-12.931-34.283-4.939l29.797 39.289z"/><path fill="#B359A2" d="M874.323 78.846c-5.063-12.481-19.224-18.62-31.813-13.707-12.589 4.911-18.85 19.014-14.123 31.63l45.936-17.923z"/><path fill="#A41555" d="M828.406 96.762c8.684-6.778 11.612-18.252 7.913-28.099-8.296 6.459-11.798 17.769-7.936 28.094l.009.011.014-.006z"/><path fill="#FDD633" d="M941.518 137.222c2.984-14.473-6.198-28.706-20.681-31.891-14.476-3.188-28.788 5.871-32.159 20.258l52.84 11.633z"/><path fill="#F7A349" d="M967.14 89.576c-13.109-6.824-29.308-1.881-36.327 11.176-7.027 13.058-2.223 29.294 10.698 36.474l25.629-47.65z"/><path fill="#F98B0F" d="M941.521 137.205c2.432-11.841-3.281-23.511-13.377-29.105-2.339 11.298 2.784 23.238 13.354 29.117l.016.004.007-.016z"/><path fill="#C5D556" d="M1020.765 182.655c11.786-9.54 13.771-26.806 4.355-38.763-9.405-11.955-26.656-14.083-38.697-4.869l34.342 43.632z"/><path fill="#00B9BC" d="M1072.107 161.542c-5.954-13.948-22.02-20.573-36.094-14.787-14.072 5.782-20.836 21.788-15.26 35.897l51.354-21.11z"/><path fill="#009C41" d="M1020.777 182.644c9.64-7.813 12.702-20.788 8.34-31.797-9.211 7.441-12.924 20.244-8.368 31.79l.011.014.017-.007z"/><path fill="#E83A84" d="M1023.267 103.207c17.706-13.808 21.102-39.321 7.481-57.275-13.608-17.947-39.09-21.562-57.164-8.236l49.683 65.511z"/><path fill="#B359A2" d="M1099.845 73.316c-8.443-20.811-32.053-31.046-53.046-22.854-20.99 8.188-31.429 31.704-23.548 52.74l76.594-29.886z"/><path fill="#A41555" d="M1023.283 103.189c14.479-11.302 19.361-30.435 13.194-46.852-13.833 10.77-19.672 29.628-13.231 46.843l.014.018.023-.009z"/><path fill="#FDD633" d="M1002.01 313.294c3.123-15.156-6.491-30.06-21.656-33.395-15.158-3.339-30.146 6.148-33.676 21.214l55.332 12.181z"/><path fill="#F7A349" d="M1028.84 263.401c-13.728-7.146-30.69-1.97-38.041 11.703-7.358 13.674-2.327 30.675 11.204 38.193l26.837-49.896z"/><path fill="#F98B0F" d="M1002.014 313.276c2.547-12.4-3.436-24.62-14.008-30.479-2.448 11.831 2.916 24.333 13.983 30.49l.015.004.01-.015z"/><path fill="#C5D556" d="M1084.993 360.869c12.343-9.989 14.421-28.07 4.561-40.59-9.848-12.52-27.911-14.748-40.521-5.099l35.96 45.689z"/><path fill="#00B9BC" d="M1138.759 338.761c-6.236-14.606-23.061-21.543-37.797-15.483-14.736 6.055-21.818 22.815-15.979 37.59l53.776-22.107z"/><path fill="#009C41" d="M1085.007 360.858c10.095-8.181 13.301-21.77 8.733-33.297-9.646 7.791-13.533 21.198-8.763 33.289l.013.015.017-.007z"/><path fill="#E83A84" d="M1087.613 277.674c18.542-14.458 22.097-41.175 7.834-59.976-14.249-18.792-40.933-22.578-59.859-8.624l52.025 68.6z"/><path fill="#B359A2" d="M1167.803 246.375c-8.841-21.792-33.564-32.511-55.547-23.932-21.98 8.574-32.911 33.198-24.659 55.227l80.206-31.295z"/><path fill="#A41555" d="M1087.631 277.656c15.162-11.835 20.275-31.869 13.816-49.061-14.485 11.277-20.599 31.025-13.855 49.052l.015.019.024-.01z"/><path fill="#FDD633" d="M510.896 151.014c11.987-13.288 11.122-33.782-2.051-45.985-13.164-12.205-33.664-11.516-46.006 1.443l48.057 44.542z"/><path fill="#F7A349" d="M566.862 116.959c-9.508-15.164-29.455-19.932-44.793-10.597-15.341 9.331-20.279 29.231-11.183 44.651l55.976-34.054z"/><path fill="#F98B0F" d="M510.909 150.998c9.799-10.876 10.984-26.567 3.872-38.598-9.367 10.368-11.338 25.976-3.903 38.597l.014.012.017-.011z"/><path fill="#C5D556" d="M531.654 215.063c8.292-11.673 5.702-27.878-5.901-36.354-11.594-8.477-27.82-6.024-36.425 5.418l42.326 30.936z"/><path fill="#00B9BC" d="M572.969 182.803c-8.963-11.168-25.258-13.104-36.582-4.263-11.325 8.838-13.403 25.113-4.742 36.523l41.324-32.26z"/><path fill="#009C41" d="M531.663 215.049c6.777-9.556 6.262-22.135-.507-31.034-6.482 9.108-6.601 21.695.48 31.034l.013.01.014-.01z"/><path fill="#E83A84" d="M639.015 155.953c20.919-14.132 26.679-42.495 12.772-63.675-13.892-21.173-42.199-27.175-63.493-13.611l50.721 77.286z"/><path fill="#B359A2" d="M727.204 128.28c-7.879-23.989-33.583-37.278-57.756-29.693-24.172 7.58-37.682 33.161-30.448 57.361l88.204-27.668z"/><path fill="#A41555" d="M639.035 155.937c17.107-11.572 24.049-32.661 18.384-51.549-16.34 11.023-24.334 31.731-18.425 51.536l.015.021.026-.008z"/><polygon fill="#ABAEB5" points="463.549,357.062 438.178,133.457 433.117,134.031 432.428,127.957 291.874,143.905 317.245,367.509 322.306,366.935 322.995,373.009"/><rect x="268.249" y="182.302" transform="matrix(-.113 -.994 .994 -.113 171.409 654.027)" fill="#777C86" width="218.925" height="136.362"/><rect x="325.674" y="158.298" transform="matrix(.994 -.113 .113 .994 -23.691 43.9)" fill="#fff" width="101.225" height="146.226"/><rect x="376.352" y="321.156" transform="matrix(.994 -.113 .113 .994 -34.896 45.738)" fill="#fff" width="21.151" height="20.471"/><path fill="#626977" d="M397.518 232.671c4.417-4.758 4.206-12.199-.51-16.693-4.714-4.493-12.153-4.346-16.697.292l17.207 16.401z"/><path fill="#626977" d="M417.993 220.599c-3.371-5.547-10.583-7.378-16.194-4.068-5.612 3.305-7.504 10.501-4.284 16.14l20.478-12.072z"/><path fill="#252A37" d="M397.523 232.667c3.611-3.896 4.119-9.582 1.601-13.983-3.45 3.713-4.245 9.368-1.611 13.98l.005.005.005-.002z"/><path fill="#626977" d="M405.631 267.337c3.662-3.944 3.487-10.112-.422-13.837-3.908-3.724-10.074-3.603-13.841.243l14.263 13.594z"/><path fill="#626977" d="M422.603 257.331c-2.794-4.598-8.773-6.116-13.424-3.372-4.652 2.739-6.221 8.704-3.551 13.378l16.975-10.006z"/><path fill="#252A37" d="M405.635 267.333c2.994-3.23 3.415-7.943 1.327-11.591-2.86 3.078-3.519 7.765-1.336 11.589l.004.004.005-.002z"/><path fill="#626977" d="M362.826 258.986c3.231-2.742 3.671-7.579.963-10.857-2.707-3.277-7.539-3.759-10.843-1.105l9.88 11.962z"/><path fill="#626977" d="M377.03 252.75c-1.755-3.856-6.287-5.602-10.179-3.893-3.893 1.707-5.677 6.224-4.027 10.128l14.206-6.235z"/><path fill="#252A37" d="M362.83 258.983c2.642-2.245 3.412-5.89 2.121-8.937-2.523 2.139-3.477 5.741-2.128 8.935l.002.003.005-.001z"/><path fill="#626977" d="M467.624 246.001c3.897-8.164.527-17.969-7.612-21.986-8.135-4.018-17.965-.733-22.082 7.321l29.694 14.665z"/><path fill="#414855" d="M449.958 237.276l-1.63-14.369c-4.344 1.188-8.192 4.116-10.396 8.429l12.026 5.94z"/><path fill="#2D333E" d="M443.453 225.126c-2.268 1.52-4.195 3.613-5.522 6.21l6.597 3.258-1.075-9.468z"/><path fill="#626977" d="M489.838 221.446c-6.788-5.978-17.139-5.417-23.226 1.314-6.09 6.726-5.618 17.082 1.007 23.243l22.219-24.557z"/><path fill="#252A37" d="M467.629 245.992c3.185-6.681 1.498-14.452-3.679-19.258-3.045 6.37-1.754 14.22 3.665 19.26l.007.005.007-.007z"/><path fill="#626977" d="M454.419 193.308c.493-11.427-8.285-21.167-19.743-21.811-11.456-.645-21.269 8.044-22.067 19.455l41.81 2.356z"/><path fill="#414855" d="M442.733 173.607c-2.445-1.203-5.165-1.948-8.057-2.11-11.456-.645-21.269 8.044-22.067 19.455l32.298 1.82-2.174-19.165z"/><path fill="#2D333E" d="M437.408 171.852c-.893-.169-1.799-.302-2.731-.354-11.456-.645-21.269 8.044-22.067 19.455l27.14 1.529-2.342-20.63z"/><path fill="#606775" d="M420.902 175.697c-4.673 3.529-7.854 8.974-8.293 15.255l10.088.568-1.795-15.823z"/><path fill="#626977" d="M468.104 153.735c-10.857-3.592-22.623 2.185-26.373 13.032-3.754 10.842 1.924 22.658 12.683 26.546l13.69-39.578z"/><path fill="#444A56" d="M441.908 166.329l-.176.438c-2.209 6.381-1.132 13.087 2.305 18.328l-2.129-18.766z"/><path fill="#252A37" d="M454.421 193.294c.397-9.348-5.415-17.557-13.817-20.585-.389 8.92 5.001 17.414 13.801 20.596l.011.001.005-.012z"/><path fill="#1A1E28" d="M442.736 173.632c-.692-.341-1.398-.659-2.133-.923-.194 4.448 1.05 8.79 3.437 12.421l-1.304-11.498z"/><path fill="#A9ADB4" d="M220.975 206.039c10.145-6.22 13.444-19.46 7.342-29.721-6.106-10.261-19.308-13.68-29.621-7.733l22.279 37.454z"/><path fill="#A9ADB4" d="M263.08 194.84c-3.213-11.466-15.034-18.258-26.58-15.186-11.541 3.063-18.432 14.834-15.531 26.378l42.111-11.192z"/><path fill="#8D8F95" d="M220.995 206.025c8.292-5.097 11.993-14.886 9.718-23.895-7.927 4.852-12.117 14.449-9.745 23.897l.002.004.025-.006z"/><path fill="#A9ADB4" d="M203.186 329.184c6.91-12.365 2.626-28.032-9.684-35.132-12.314-7.097-28.012-2.959-35.257 9.219l44.941 25.913z"/><path fill="#A9ADB4" d="M240.378 293.038c-10.012-10.033-26.24-10.201-36.438-.288-10.198 9.9-10.498 26.133-.765 36.43l37.203-36.142z"/><path fill="#8D8F95" d="M203.198 329.157c5.641-10.12 3.783-22.438-3.825-30.468-5.405 9.654-4.166 22.058 3.797 30.486l.006.002.022-.02z"/><path fill="#A9ADB4" d="M118.334 138.003c6.431-8.614 4.769-20.825-3.784-27.393-8.556-6.565-20.777-5.017-27.44 3.422l31.224 23.971z"/><path fill="#A9ADB4" d="M149.915 114.518c-6.532-8.544-18.723-10.288-27.382-3.847-8.658 6.432-10.5 18.612-4.205 27.328l31.587-23.481z"/><path fill="#8D8F95" d="M118.347 137.984c5.252-7.051 5.082-16.502.159-23.301-5.027 6.725-5.332 16.178-.18 23.312l.003.002.018-.013z"/><path fill="#A9ADB4" d="M260.81 119.024c1.942-7.949-2.856-16.012-10.804-18.067-7.95-2.054-16.052 2.667-18.209 10.564l29.013 7.503z"/><path fill="#A9ADB4" d="M275.948 93.17c-7.12-4.043-16.181-1.637-20.331 5.454-4.153 7.083-1.819 16.167 5.187 20.401l15.144-25.855z"/><path fill="#8D8F95" d="M260.813 119.008c1.581-6.504-1.352-13.076-6.824-16.374-1.522 6.208 1.079 12.922 6.811 16.388h.003l.01-.014z"/><path fill="#A9ADB4" d="M93.214 290.595c6.854-18.343-2.277-38.854-20.584-45.98-18.313-7.122-38.897 1.817-46.25 19.975l66.834 26.005z"/><path fill="#A9ADB4" d="M136.475 233.42c-15.781-11.615-37.992-8.449-49.853 7.23-11.864 15.663-8.876 37.908 6.577 49.941l43.276-57.171z"/><path fill="#8D8F95" d="M93.227 290.556c5.59-15.009.474-31.454-11.602-40.833-5.366 14.324-1.078 31.014 11.568 40.865l.008.001.026-.033z"/></svg>