<svg xmlns="http://www.w3.org/2000/svg" viewBox="0 0 483.507 35.452"><path fill="#EA3C86" d="M448.694 35.729c6.987-9.834 4.805-23.49-4.973-30.633-9.769-7.142-23.441-5.076-30.691 4.566l35.664 26.067z"/><path fill="#B359A2" d="M483.507 8.546c-7.552-9.41-21.282-11.042-30.824-3.592-9.542 7.448-11.294 21.161-3.995 30.774l34.819-27.182z"/><path fill="#A41555" d="M448.701 35.718c5.712-8.049 5.277-18.649-.427-26.149-5.461 7.675-5.562 18.281.406 26.15l.01.007.011-.008z"/><path fill="#C7D658" d="M353.152 35.729c5.533-7.789 3.805-18.602-3.938-24.258-7.736-5.656-18.563-4.02-24.305 3.615l28.243 20.643z"/><path fill="#00B9BC" d="M380.72 14.204c-5.98-7.452-16.854-8.744-24.409-2.845-7.557 5.897-8.943 16.757-3.164 24.37l27.573-21.525z"/><path fill="#009C41" d="M353.158 35.72c4.522-6.376 4.179-14.77-.338-20.708-4.325 6.078-4.404 14.476.32 20.708l.009.007.009-.007z"/><path fill="#FFD835" d="M268.767 35.729c4.808-6.768 3.306-16.164-3.421-21.078-6.723-4.915-16.131-3.494-21.12 3.142l24.541 17.936z"/><path fill="#F9A54B" d="M292.721 17.025c-5.197-6.476-14.645-7.599-21.21-2.472-6.566 5.125-7.771 14.561-2.749 21.176l23.959-18.704z"/><path fill="#F98C10" d="M268.771 35.721c3.93-5.539 3.631-12.833-.294-17.993-3.758 5.281-3.826 12.579.279 17.994l.007.005.008-.006z"/><path fill="#626977" d="M194.897 35.729c3.987-5.611 2.741-13.402-2.837-17.479-5.574-4.075-13.375-2.896-17.513 2.605l20.35 14.874z"/><path fill="#626977" d="M214.761 20.219c-4.31-5.369-12.144-6.301-17.587-2.049-5.445 4.248-6.443 12.074-2.28 17.559l19.867-15.51z"/><path fill="#262B36" d="M194.901 35.723c3.26-4.593 3.011-10.641-.243-14.92-3.116 4.379-3.172 10.432.231 14.92l.006.004.006-.004z"/><path fill="#626977" d="M129.029 35.729c2.837-3.994 1.951-9.537-2.019-12.438-3.966-2.9-9.518-2.063-12.462 1.854l14.481 10.584z"/><path fill="#626977" d="M143.164 24.692c-3.067-3.82-8.642-4.484-12.516-1.459-3.875 3.023-4.585 8.592-1.623 12.496l14.139-11.037z"/><path fill="#262B36" d="M129.032 35.724c2.32-3.27 2.143-7.572-.174-10.617-2.216 3.116-2.257 7.423.165 10.618l.004.003.005-.004z"/><g fill="#626977"><path d="M59.862 35.729c2.837-3.994 1.951-9.537-2.019-12.438-3.966-2.9-9.518-2.063-12.462 1.854l14.481 10.584zM81.165 24.692c-3.067-3.82-8.642-4.484-12.516-1.459-3.875 3.023-4.585 8.592-1.623 12.496l14.139-11.037z"/></g><g fill="#626977"><path d="M9.756 35.729c4.01-.045 7.255-3.299 7.265-7.322.011-4.023-3.216-7.295-7.227-7.359l-.038 14.681zM7.265 21.047c-4.011.043-7.255 3.297-7.265 7.323-.011 4.021 3.216 7.293 7.227 7.359l.038-14.682z"/></g></svg>