<svg xmlns="http://www.w3.org/2000/svg" viewBox="0 0 498.641 107.517"><path fill="#fff" d="M403.496 104.194c3.176-2.215 5.612-5.24 7.311-9.08l28.567-69.979h-13.289l-17.605 43.406-17.605-43.406h-13.285c15.868 39.348 23.804 59.535 23.804 60.568 0 2.362-.868 4.539-2.601 6.534-1.736 1.993-3.987 2.988-6.756 2.988-2.768 0-5.444-1.217-8.027-3.652l-5.646 10.074c4.354 3.912 9.225 5.87 14.616 5.87 3.835 0 7.343-1.109 10.516-3.323m-44.531-90.63c1.477-1.66 3.543-2.492 6.2-2.492 2.659 0 5.205 1.292 7.643 3.875l5.09-8.748c-4.354-3.91-9.171-5.867-14.448-5.867-5.276 0-9.782 1.827-13.51 5.479-3.729 3.656-5.592 8.582-5.592 14.784v4.539h-7.419v9.967h7.419v48.94h12.403v-48.94h15.501v-9.967h-15.501v-4.872c0-2.803.734-5.038 2.214-6.698m-38.288 2.159c2.141 0 3.986-.775 5.536-2.325 1.551-1.549 2.325-3.394 2.325-5.538 0-2.139-.774-3.986-2.325-5.535-1.55-1.552-3.396-2.325-5.536-2.325-2.144 0-3.986.773-5.537 2.326-1.55 1.549-2.325 3.396-2.325 5.535 0 2.144.775 3.988 2.325 5.538 1.55 1.549 3.393 2.324 5.537 2.324m6.09 9.412h-12.403v58.908h12.403v-58.908zm-26.022 9.967v-9.967h-15.501v-18.491h-12.4v18.491h-7.42v9.967h7.42v29.563c0 6.2 1.861 11.128 5.591 14.78 3.727 3.653 8.229 5.48 13.508 5.48 5.277 0 10.096-1.953 14.45-5.868l-5.094-8.745c-2.436 2.585-4.983 3.873-7.64 3.873s-4.726-.831-6.201-2.489c-1.477-1.662-2.214-3.894-2.214-6.701v-29.893h15.501zm-62.582 34.377c-3.175 2.846-6.904 4.267-11.184 4.267-9.007 0-13.508-5.426-13.508-16.277v-32.334h-12.402v36.097c0 7.68 2.047 13.546 6.146 17.608 4.096 4.057 9.466 6.086 16.111 6.086 4.058 0 7.842-1.03 11.349-3.1 3.505-2.065 6.256-4.907 8.25-8.524v10.74h12.4v-58.907h-12.4v31.89c0 5.465-1.59 9.616-4.762 12.454m-68.076 1.608c-2.953 2.215-6.404 3.321-10.352 3.321-3.949 0-7.03-.756-9.245-2.271-2.216-1.512-3.322-3.708-3.322-6.588 0-5.607 4.465-8.415 13.397-8.415h13.951v4.984c.001 3.764-1.476 6.753-4.429 8.969m16.831-25.024c0-7.531-2.197-13.047-6.587-16.555-4.393-3.503-10.06-5.26-16.997-5.26-9.08 0-17.202 2.842-24.36 8.525l5.536 7.751c5.905-3.985 11.588-5.978 17.052-5.978 8.709 0 13.066 3.912 13.066 11.737v2.217h-16.055c-7.31 0-13.105 1.438-17.386 4.315-4.281 2.883-6.421 7.218-6.421 13.013 0 5.797 2.011 10.428 6.035 13.896 4.021 3.471 9.096 5.202 15.225 5.202 8.194 0 14.727-2.913 19.599-8.745v7.861h11.293v-37.979zm-100.397-7.031c3.617-2.769 7.696-4.155 12.236-4.155 4.54 0 8.36 1.331 11.461 3.988 3.1 2.658 4.651 6.46 4.651 11.405h-33.772c0-4.723 1.808-8.473 5.424-11.238m40.75 12.455c0-8.488-2.807-15.148-8.415-19.985-5.611-4.835-12.421-7.253-20.43-7.253-8.011 0-14.967 2.73-20.873 8.195-5.907 5.462-8.858 12.826-8.858 22.09 0 9.263 2.896 16.646 8.692 22.144 5.795 5.5 12.826 8.249 21.095 8.249 10.187 0 18.453-3.283 24.803-9.854l-7.087-7.749c-3.839 4.648-9.449 6.977-16.831 6.977-4.65 0-8.787-1.311-12.401-3.933-3.618-2.62-5.576-6.072-5.869-10.353h46.174v-8.528zm-109.998-10.795c3.396-3.726 7.566-5.59 12.512-5.59s9.192 1.864 12.734 5.59c3.544 3.729 5.315 8.415 5.315 14.063 0 5.646-1.81 10.241-5.425 13.786-3.619 3.542-7.862 5.313-12.735 5.313-4.871 0-9.006-1.789-12.402-5.368-3.395-3.58-5.093-8.175-5.093-13.786.001-5.608 1.699-10.28 5.094-14.008m-4.872-5.26v-33.55h-12.401v82.161h12.401v-8.857c5.905 6.497 12.567 9.741 19.986 9.741 7.42 0 13.916-2.839 19.489-8.524 5.574-5.685 8.361-13.066 8.361-22.146s-2.807-16.351-8.416-21.813c-5.611-5.465-12.364-8.195-20.264-8.195-7.899 0-14.284 3.728-19.156 11.183"/><path fill="#fff" d="M498.641 68.147c0-4.577-1.593-8.455-4.78-11.62-3.186-3.167-7.17-4.75-11.951-4.75-4.78 0-8.763 1.584-11.95 4.75-3.187 3.165-4.78 7.043-4.78 11.62 0 4.583 1.594 8.455 4.78 11.623 3.188 3.166 7.17 4.751 11.95 4.751 4.781 0 8.766-1.585 11.951-4.751 3.187-3.168 4.78-7.04 4.78-11.623m-26.77 0c0-3.067.947-5.563 2.838-7.499 1.894-1.931 4.293-2.896 7.2-2.896 2.91 0 5.309.966 7.202 2.896 1.891 1.936 2.837 4.432 2.837 7.499 0 3.069-.946 5.57-2.837 7.501-1.894 1.932-4.292 2.897-7.202 2.897-2.907 0-5.307-.966-7.2-2.897-1.891-1.931-2.838-4.432-2.838-7.501m-16.723-20.972c1.154 0 2.15-.417 2.986-1.254.839-.837 1.255-1.832 1.255-2.987 0-1.156-.416-2.15-1.255-2.988-.836-.837-1.832-1.254-2.986-1.254-1.156 0-2.151.417-2.988 1.254-.836.838-1.255 1.832-1.255 2.988 0 1.155.419 2.15 1.255 2.987.837.837 1.832 1.254 2.988 1.254m3.288 5.079h-6.693v31.788h6.693v-31.788zm-19.201 32.267c1.234 0 2.29-.44 3.169-1.316.874-.875 1.313-1.931 1.313-3.165s-.438-2.279-1.313-3.138c-.879-.856-1.935-1.286-3.169-1.286-1.233 0-2.28.43-3.138 1.286-.856.858-1.283 1.903-1.283 3.138s.427 2.29 1.283 3.165c.858.876 1.905 1.316 3.138 1.316"/></svg>
