<svg xmlns="http://www.w3.org/2000/svg" viewBox="0 0 171 40" enable-background="new 0 0 171 40"><g fill="#fff"><path d="M27.5 33.8c0-.1.1-.1.1 0l2.7 6c0 .1 0 .1-.1.1h-.6c-.1 0-.1 0-.1-.1l-.6-1.4h-2.7l-.6 1.4c0 .1-.1.1-.1.1h-.6c-.1 0-.1 0 0-.1l2.6-6zm-1 3.9h2.1l-1-2.4c0-.1-.1-.1-.1 0l-1 2.4zM32.8 39.9c-.1 0-.1 0-.1-.1v-5.9c0-.1 0-.1.1-.1h.6c.1 0 .1 0 .1.1v5.3h2c.1 0 .1 0 .1.1v.5c0 .1 0 .1-.1.1h-2.7zM39.3 39.9c-.1 0-.1 0 0 0l-.1-5.4c0-.1 0-.1-.1-.1h-1.9c-.1 0-.1 0-.1-.1v-.5c0-.1 0-.1.1-.1H42c.1 0 .1 0 .1.1v.5c0 .1 0 .1-.1.1h-1.9c-.1 0-.1 0-.1.1v5.3c0 .1 0 .1-.1.1h-.6zM47 33.6c1.8 0 3.2 1.4 3.2 3.2 0 1.8-1.4 3.2-3.2 3.2-1.8 0-3.2-1.4-3.2-3.2 0-1.7 1.4-3.2 3.2-3.2zm0 5.7c1.4 0 2.5-1.1 2.5-2.5s-1.1-2.5-2.5-2.5-2.5 1.1-2.5 2.5 1.1 2.5 2.5 2.5zM55.7 39.3c.6 0 1.2-.1 1.5-.3v-2c0-.1 0-.1-.1-.1h-1.7c-.1 0-.1 0-.1-.1v-.5c0-.1.1-.1.1-.1h2.3c.1 0 .1 0 .1.1v3c0 .1 0 .1-.1.2-.6.3-1.4.5-2.2.5-1.8 0-3.2-1.3-3.2-3.2 0-1.9 1.4-3.2 3.2-3.2.7 0 1.4.2 2 .5.1 0 .1.1.1.1v.5c0 .1 0 .1-.1 0-.5-.3-1.2-.5-2-.5-1.5 0-2.5 1.1-2.5 2.5.2 1.5 1.3 2.6 2.7 2.6zM61.1 33.8s.1 0 0 0l3.1-.1c.1 0 .1 0 .1.1v.5c0 .1 0 .1-.1.1h-2.4v1.9h2.4c.1 0 .1 0 .1.1v.4c0 .1 0 .1-.1.1h-2.4V39h2.4c.1 0 .1 0 .1.1v.4c0 .1 0 .1-.1.1h-3c-.1 0-.1 0-.1-.1v-5.7zM69 39.9c-.1 0-.1 0 0 0l-.1-5.4c0-.1 0-.1-.1-.1h-1.9c-.1 0-.1 0-.1-.1v-.5c0-.1 0-.1.1-.1h4.8c.1 0 .1 0 .1.1v.5c0 .1 0 .1-.1.1h-1.9c-.1 0-.1 0-.1.1v5.3c0 .1 0 .1-.1.1H69zM74.4 39.9c-.1 0-.1 0 0 0l-.1-6.1c0-.1 0-.1.1-.1h.6c.1 0 .1 0 .1.1v2.5h2.8v-2.5c0-.1 0-.1.1-.1h.5c.1 0 .1.1.1.1v6c0 .1 0 .1-.1.1H78c-.1 0-.1 0-.1-.1v-2.6s0-.1-.1-.1h-2.7v2.7c0 .1 0 .1-.1.1h-.6zM81.6 33.8l3.1-.1c.1 0 .1 0 .1.1v.5c0 .1 0 .1-.1.1h-2.4v1.9h2.4c.1 0 .1 0 .1.1v.4c0 .1 0 .1-.1.1h-2.4V39h2.4c.1 0 .1 0 .1.1v.4c0 .1 0 .1-.1.1h-3c-.1 0-.1 0-.1-.1v-5.7zM89.1 33.8c1.7 0 2.2.7 2.2 1.7 0 .8-.3 1.5-1.1 1.7l2.1 2.6s0 .1-.1.1h-.7c-.1 0-.1 0-.1-.1l-2.1-2.5h-.8c-.1 0-.1 0-.1.1v2.4c0 .1 0 .1-.1.1h-.6c-.1 0-.1 0-.1-.1v-5.9c0-.1 0-.1.1-.1h1.4zm-.6 2.7c0 .1 0 .1.1.1h.6c1 0 1.4-.3 1.4-1.1s-.5-1.1-1.4-1.1h-.6c-.1 0-.1 0-.1.1v2zM100.5 40c-.6 0-1.1-.1-1.4-.3-.1 0-.1-.1-.1-.1V39c0-.1 0-.1.1 0 .3.2.8.4 1.3.4.9 0 1.3-.4 1.3-1.1 0-.9-.7-1.2-1.4-1.5-.7-.3-1.2-.7-1.2-1.7 0-.9.6-1.5 1.7-1.5.5 0 1 .1 1.3.3.1 0 .1.1.1.1v.5s-.1.1-.1 0c-.3-.2-.7-.3-1.1-.3-.7 0-1 .3-1 .9 0 .6.5.9 1.1 1.1.7.3 1.5.7 1.5 1.9-.2 1.4-1 1.9-2.1 1.9zM110.3 39.9c-.1 0-.1 0-.1-.1v-4.3c0-.1 0-.1-.1 0l-2.1 2.4c-.1.1-.1.1-.2 0l-2.1-2.4c-.1-.1-.1 0-.1.1v4.3c0 .1 0 .1-.1.1h-.5c-.1 0-.1 0-.1-.1v-6c0-.1.1-.1.1 0l2.8 3.2c.1.1.1.1.2 0l2.8-3.2c.1-.1.1 0 .1 0v6c0 .1 0 .1-.1.1h-.5zM115.7 33.8c0-.1.1-.1.1 0l2.7 6c0 .1 0 .1-.1.1h-.6c-.1 0-.1 0-.1-.1l-.6-1.4h-2.7l-.6 1.4c0 .1-.1.1-.1.1h-.6c-.1 0-.1 0 0-.1l2.6-6zm-.9 3.9h2.1l-1-2.4c0-.1-.1-.1-.1 0l-1 2.4zM122.4 33.8c1.7 0 2.2.7 2.2 1.7 0 .8-.3 1.5-1.1 1.7l2.1 2.6s0 .1-.1.1h-.7c-.1 0-.1 0-.1-.1l-2.1-2.5h-.8c-.1 0-.1 0-.1.1v2.4c0 .1 0 .1-.1.1h-.6c-.1 0-.1 0-.1-.1v-5.9c0-.1 0-.1.1-.1h1.4zm-.6 2.7c0 .1 0 .1.1.1h.6c1 0 1.4-.3 1.4-1.1s-.5-1.1-1.4-1.1h-.6c-.1 0-.1 0-.1.1v2zM129.3 39.9c-.1 0-.1 0 0 0l-.1-5.4c0-.1 0-.1-.1-.1h-1.9c-.1 0-.1 0-.1-.1v-.5c0-.1 0-.1.1-.1h4.8c.1 0 .1 0 .1.1v.5c0 .1 0 .1-.1.1h-1.9c-.1 0-.1 0-.1.1v5.3c0 .1 0 .1-.1.1h-.6zM134.5 33.8l3.1-.1c.1 0 .1 0 .1.1v.5c0 .1 0 .1-.1.1h-2.4v1.9h2.4c.1 0 .1 0 .1.1v.4c0 .1 0 .1-.1.1h-2.4V39h2.4c.1 0 .1 0 .1.1v.4c0 .1 0 .1-.1.1h-3c-.1 0-.1 0-.1-.1v-5.7zM141.8 33.8c1.7 0 2.2.7 2.2 1.7 0 .8-.3 1.5-1.1 1.7l2.1 2.6s0 .1-.1.1h-.7c-.1 0-.1 0-.1-.1l-2.1-2.5h-.8c-.1 0-.1 0-.1.1v2.4c0 .1 0 .1-.1.1h-.6c-.1 0-.1 0-.1-.1v-5.9c0-.1 0-.1.1-.1h1.4zm-.6 2.7c0 .1 0 .1.1.1h.6c1 0 1.4-.3 1.4-1.1s-.5-1.1-1.4-1.1h-.6c-.1 0-.1 0-.1.1v2z"/></g><g fill="#fff"><path d="M4.1 14.2c-1.9 0-3-.5-3.4-.8-.4-.4-.7-1.9-.7-3.2.1-.3.6-.3.8-.1.4 1.3 1.8 3.2 3.5 3.2 1.5 0 2.2-1 2.2-2 0-1.6-1.5-2.6-2.8-3.2C2.2 7.4.6 6.2.6 4.1.6 1.8 2.4.2 5.3.2c.7 0 1.5.1 2.3.3.3.1.4.1.7.2.2.4.4 1.5.4 2.9-.1.2-.6.2-.8 0-.3-1-1.2-2.5-2.7-2.5-1.3 0-2 .9-2 1.9 0 .9.8 1.8 1.8 2.3l1.3.7c1.3.7 2.9 1.8 2.9 4.1 0 2.5-2 4.1-5.1 4.1zM27.1.7c0 .4.1 2 .2 3.2-.1.2-.6.3-.8.1-.5-1.9-1.8-2.9-3.8-2.9-2.3 0-4.7 1.9-4.7 6 0 4 2.3 6.2 4.8 6.2s3.6-1.8 4.1-3.1c.2-.2.6-.1.8.1-.1 1.5-.5 2.7-.8 3.2-1.1.3-2.5.8-4.1.8-2 0-4-.5-5.5-1.5-1.5-1.1-2.6-2.8-2.6-5.3s1.1-4.2 2.5-5.4C18.6.9 20.7.3 22.8.3c2.2-.1 3.7.4 4.3.4zM47.5 7.1c0 4.4-3 7.1-7.3 7.1-4.1 0-7-2.7-7-6.9 0-4 3-7.1 7.2-7.1s7.1 2.8 7.1 6.9zm-7.3-6c-2.5 0-3.8 2.3-3.8 5.7 0 2.5.9 6.4 4.2 6.4 2.7 0 3.7-2.6 3.7-5.9 0-3.4-1.6-6.2-4.1-6.2zM57.5 2c0-.5 0-.6-.5-.6h-1.3c-1.5 0-1.9.8-2.5 2.3-.2.1-.6.1-.8-.2.4-1.4.5-2.7.7-3.4.2-.1.3-.1.4-.1.1 0 .2 0 .3.1.1.3.2.4 1.7.4H63c1.3 0 1.6 0 1.8-.4.1-.1.2-.1.3-.1.1 0 .3.1.3.1-.2.7-.3 2.3-.3 3.5-.1.2-.6.2-.8.1-.3-1.3-.6-2.3-2.1-2.3H61c-.5 0-.5.1-.5.6v9c0 1.9.1 2 1 2.2l.8.1c.1.1.1.6 0 .7-1.3 0-2.3-.1-3.2-.1-1 0-2 0-3.4.1-.2-.1-.2-.6 0-.7l.9-.1c.9-.1 1-.3 1-2.2V2zM75.5 2c0-.5 0-.6-.5-.6h-1.3c-1.5 0-1.9.8-2.5 2.3-.2.1-.6.1-.8-.2.4-1.4.5-2.7.7-3.4.1-.1.2-.1.3-.1.1 0 .2 0 .3.1.1.3.2.4 1.7.4h7.5c1.3 0 1.6 0 1.8-.4.1-.1.2-.1.3-.1.1 0 .3.1.3.1-.2.7-.3 2.4-.3 3.5-.1.2-.6.2-.8.1-.3-1.3-.6-2.3-2.2-2.3h-1.2c-.5 0-.5.1-.5.6v9c0 1.9.1 2 1 2.2l.8.1c.1.1.1.6 0 .7-1.3 0-2.3-.1-3.2-.1-1 0-2 0-3.4.1-.2-.1-.2-.6 0-.7l.9-.1c.9-.1 1-.3 1-2.2V2z"/></g><g fill="#fff"><path d="M95.4 3.5c0-2.1 0-2.5-1.3-2.6h-.5c-.1-.1-.1-.4 0-.5 1.1 0 1.8.1 2.6.1s1.5 0 2.5-.1c.1.1.2.4 0 .5h-.5c-1.1.2-1.2.5-1.2 2.6v7.1c0 1.3.1 1.8.4 2.2.2.2.6.5 2.2.5 1.7 0 2.1-.1 2.5-.3.4-.2.9-1 1.3-2 .1-.1.5 0 .5.1 0 .2-.6 2.3-.9 2.8-1 0-3-.1-5.1-.1H96c-.9 0-1.5 0-2.6.1-.1-.1-.2-.4 0-.5l.6-.1c1.2-.1 1.2-.4 1.2-2.5V3.5zM108.6 7.3c0-4.1 3-7.2 7.2-7.2 4.7 0 7 3.4 7 7 0 4.1-3.1 7.1-7 7.1-4.5 0-7.2-3.2-7.2-6.9zm12.2.5c0-3.3-1.5-7-5.4-7-2.1 0-4.8 1.4-4.8 5.9 0 3 1.5 6.9 5.5 6.9 2.4 0 4.7-1.8 4.7-5.8zM140.1 11.8c0 .8.1 1.3.5 1.4.1.1.1.2 0 .2-.2 0-.6.1-1 .2-1.1.3-2.5.5-3.6.5-2.4 0-4.6-.7-6.2-2.3-1.2-1.2-1.9-2.8-1.9-4.6 0-1.7.6-3.5 1.8-4.8 1.4-1.4 3.4-2.4 6.4-2.4 1.2 0 2.2.2 2.6.3.4.1 1 .2 1.3.2 0 .7.1 1.7.3 2.9-.1.2-.4.2-.5.1-.6-2.2-2.1-2.9-4.2-2.9-3.9 0-5.7 2.8-5.7 5.8 0 3.9 2 7 6.1 7 1.3 0 2-.3 2.2-.6.1-.1.2-.5.2-1.2V11c0-1.7-.1-1.8-1.3-2l-.9-.1c-.2-.1-.1-.4 0-.5.6 0 1.7.1 2.9.1.8 0 1.5 0 2.2-.1.1.1.2.4 0 .5l-.3.1c-.9.1-.9.7-.9 1.7v1.1zM148.8 3.6c0-2.1 0-2.5-1.2-2.6h-.6c-.1-.1-.1-.4 0-.5 1 0 1.7.1 2.6.1.8 0 1.5 0 2.5-.1.1.1.2.4 0 .5h-.5c-1.2.1-1.2.4-1.2 2.6v7.2c0 2.1 0 2.4 1.2 2.6l.5.1c.1.1.1.4 0 .5-1 0-1.7-.1-2.5-.1-.9 0-1.5 0-2.6.1-.1-.1-.2-.4 0-.5l.5-.1c1.2-.1 1.2-.4 1.2-2.6V3.6zM159.9 1.9c1.5-1.2 3.4-1.7 5.5-1.7 1.1 0 2.6.2 3.6.5.2.1.4.1.6.1 0 .5.1 1.7.3 3-.1.1-.4.2-.5 0-.3-1.4-1.2-3-4.2-3-3.1 0-5.7 2-5.7 6.2 0 4.3 2.7 6.6 6 6.6 2.6 0 3.8-1.7 4.2-2.9.1-.1.4-.1.5.1-.1 1.1-.7 2.4-1 2.8-.2 0-.5.1-.7.2-.4.2-1.9.5-3.2.5-1.8 0-3.6-.4-5.1-1.4-1.6-1.1-2.9-3-2.9-5.6 0-2.3 1.1-4.2 2.6-5.4z"/></g><path fill="#fff" d="M0 23.4h170.4v.3H0z"/></svg>