<?xml version="1.0" encoding="utf-8"?>
<!-- Generator: Adobe Illustrator 18.0.0, SVG Export Plug-In . SVG Version: 6.00 Build 0)  -->
<!DOCTYPE svg PUBLIC "-//W3C//DTD SVG 1.1//EN" "http://www.w3.org/Graphics/SVG/1.1/DTD/svg11.dtd">
<svg version="1.1" id="Layer_1" xmlns="http://www.w3.org/2000/svg" xmlns:xlink="http://www.w3.org/1999/xlink" x="0px" y="0px"
	 viewBox="0 0 171 40" enable-background="new 0 0 171 40" xml:space="preserve">
<g>
	<path fill="#FFFFFF" d="M27.5,33.8c0-0.1,0.1-0.1,0.1,0l2.7,6c0,0.1,0,0.1-0.1,0.1h-0.6c-0.1,0-0.1,0-0.1-0.1l-0.6-1.4h-2.7
		l-0.6,1.4c0,0.1-0.1,0.1-0.1,0.1h-0.6c-0.1,0-0.1,0,0-0.1L27.5,33.8z M26.5,37.7h2.1l-1-2.4c0-0.1-0.1-0.1-0.1,0L26.5,37.7z"/>
	<path fill="#FFFFFF" d="M32.8,39.9c-0.1,0-0.1,0-0.1-0.1v-5.9c0-0.1,0-0.1,0.1-0.1h0.6c0.1,0,0.1,0,0.1,0.1v5.3c0,0,0,0,0,0h2
		c0.1,0,0.1,0,0.1,0.1v0.5c0,0.1,0,0.1-0.1,0.1H32.8z"/>
	<path fill="#FFFFFF" d="M39.3,39.9C39.2,39.9,39.2,39.9,39.3,39.9l-0.1-5.4c0-0.1,0-0.1-0.1-0.1h-1.9c-0.1,0-0.1,0-0.1-0.1v-0.5
		c0-0.1,0-0.1,0.1-0.1H42c0.1,0,0.1,0,0.1,0.1v0.5c0,0.1,0,0.1-0.1,0.1h-1.9c-0.1,0-0.1,0-0.1,0.1v5.3c0,0.1,0,0.1-0.1,0.1H39.3z"/>
	<path fill="#FFFFFF" d="M47,33.6c1.8,0,3.2,1.4,3.2,3.2c0,1.8-1.4,3.2-3.2,3.2c-1.8,0-3.2-1.4-3.2-3.2C43.8,35.1,45.2,33.6,47,33.6
		z M47,39.3c1.4,0,2.5-1.1,2.5-2.5c0-1.4-1.1-2.5-2.5-2.5c-1.4,0-2.5,1.1-2.5,2.5C44.5,38.2,45.6,39.3,47,39.3z"/>
	<path fill="#FFFFFF" d="M55.7,39.3c0.6,0,1.2-0.1,1.5-0.3v-2c0-0.1,0-0.1-0.1-0.1h-1.7c-0.1,0-0.1,0-0.1-0.1v-0.5
		c0-0.1,0.1-0.1,0.1-0.1h2.3c0.1,0,0.1,0,0.1,0.1v3c0,0.1,0,0.1-0.1,0.2c-0.6,0.3-1.4,0.5-2.2,0.5c-1.8,0-3.2-1.3-3.2-3.2
		c0-1.9,1.4-3.2,3.2-3.2c0.7,0,1.4,0.2,2,0.5c0.1,0,0.1,0.1,0.1,0.1v0.5c0,0.1,0,0.1-0.1,0c-0.5-0.3-1.2-0.5-2-0.5
		c-1.5,0-2.5,1.1-2.5,2.5C53.2,38.2,54.3,39.3,55.7,39.3z"/>
	<path fill="#FFFFFF" d="M61.1,33.8C61.1,33.8,61.2,33.8,61.1,33.8l3.1-0.1c0.1,0,0.1,0,0.1,0.1v0.5c0,0.1,0,0.1-0.1,0.1h-2.4
		c0,0,0,0,0,0v1.9c0,0,0,0,0,0h2.4c0.1,0,0.1,0,0.1,0.1v0.4c0,0.1,0,0.1-0.1,0.1h-2.4c0,0,0,0,0,0v2.1c0,0,0,0,0,0h2.4
		c0.1,0,0.1,0,0.1,0.1v0.4c0,0.1,0,0.1-0.1,0.1h-3c-0.1,0-0.1,0-0.1-0.1V33.8z"/>
	<path fill="#FFFFFF" d="M69,39.9C68.9,39.9,68.9,39.9,69,39.9l-0.1-5.4c0-0.1,0-0.1-0.1-0.1h-1.9c-0.1,0-0.1,0-0.1-0.1v-0.5
		c0-0.1,0-0.1,0.1-0.1h4.8c0.1,0,0.1,0,0.1,0.1v0.5c0,0.1,0,0.1-0.1,0.1h-1.9c-0.1,0-0.1,0-0.1,0.1v5.3c0,0.1,0,0.1-0.1,0.1H69z"/>
	<path fill="#FFFFFF" d="M74.4,39.9C74.3,39.9,74.3,39.9,74.4,39.9l-0.1-6.1c0-0.1,0-0.1,0.1-0.1H75c0.1,0,0.1,0,0.1,0.1v2.5
		c0,0,0,0,0,0h2.8c0,0,0,0,0,0v-2.5c0-0.1,0-0.1,0.1-0.1h0.5c0.1,0,0.1,0.1,0.1,0.1v6c0,0.1,0,0.1-0.1,0.1H78c-0.1,0-0.1,0-0.1-0.1
		v-2.6c0,0,0-0.1-0.1-0.1h-2.7c0,0,0,0,0,0v2.7c0,0.1,0,0.1-0.1,0.1H74.4z"/>
	<path fill="#FFFFFF" d="M81.6,33.8C81.6,33.8,81.6,33.8,81.6,33.8l3.1-0.1c0.1,0,0.1,0,0.1,0.1v0.5c0,0.1,0,0.1-0.1,0.1h-2.4
		c0,0,0,0,0,0v1.9c0,0,0,0,0,0h2.4c0.1,0,0.1,0,0.1,0.1v0.4c0,0.1,0,0.1-0.1,0.1h-2.4c0,0,0,0,0,0v2.1c0,0,0,0,0,0h2.4
		c0.1,0,0.1,0,0.1,0.1v0.4c0,0.1,0,0.1-0.1,0.1h-3c-0.1,0-0.1,0-0.1-0.1V33.8z"/>
	<path fill="#FFFFFF" d="M89.1,33.8c1.7,0,2.2,0.7,2.2,1.7c0,0.8-0.3,1.5-1.1,1.7l2.1,2.6c0,0,0,0.1-0.1,0.1h-0.7
		c-0.1,0-0.1,0-0.1-0.1l-2.1-2.5h-0.8c-0.1,0-0.1,0-0.1,0.1v2.4c0,0.1,0,0.1-0.1,0.1h-0.6c-0.1,0-0.1,0-0.1-0.1v-5.9
		c0-0.1,0-0.1,0.1-0.1H89.1z M88.5,36.5c0,0.1,0,0.1,0.1,0.1h0.6c1,0,1.4-0.3,1.4-1.1c0-0.8-0.5-1.1-1.4-1.1h-0.6
		c-0.1,0-0.1,0-0.1,0.1V36.5z"/>
	<path fill="#FFFFFF" d="M100.5,40c-0.6,0-1.1-0.1-1.4-0.3c-0.1,0-0.1-0.1-0.1-0.1V39c0-0.1,0-0.1,0.1,0c0.3,0.2,0.8,0.4,1.3,0.4
		c0.9,0,1.3-0.4,1.3-1.1c0-0.9-0.7-1.2-1.4-1.5c-0.7-0.3-1.2-0.7-1.2-1.7c0-0.9,0.6-1.5,1.7-1.5c0.5,0,1,0.1,1.3,0.3
		c0.1,0,0.1,0.1,0.1,0.1v0.5c0,0-0.1,0.1-0.1,0c-0.3-0.2-0.7-0.3-1.1-0.3c-0.7,0-1,0.3-1,0.9c0,0.6,0.5,0.9,1.1,1.1
		c0.7,0.3,1.5,0.7,1.5,1.9C102.4,39.5,101.6,40,100.5,40z"/>
	<path fill="#FFFFFF" d="M110.3,39.9c-0.1,0-0.1,0-0.1-0.1v-4.3c0-0.1,0-0.1-0.1,0l-2.1,2.4c-0.1,0.1-0.1,0.1-0.2,0l-2.1-2.4
		c-0.1-0.1-0.1,0-0.1,0.1v4.3c0,0.1,0,0.1-0.1,0.1H105c-0.1,0-0.1,0-0.1-0.1v-6c0-0.1,0.1-0.1,0.1,0l2.8,3.2c0.1,0.1,0.1,0.1,0.2,0
		l2.8-3.2c0.1-0.1,0.1,0,0.1,0v6c0,0.1,0,0.1-0.1,0.1H110.3z"/>
	<path fill="#FFFFFF" d="M115.7,33.8c0-0.1,0.1-0.1,0.1,0l2.7,6c0,0.1,0,0.1-0.1,0.1h-0.6c-0.1,0-0.1,0-0.1-0.1l-0.6-1.4h-2.7
		l-0.6,1.4c0,0.1-0.1,0.1-0.1,0.1h-0.6c-0.1,0-0.1,0,0-0.1L115.7,33.8z M114.8,37.7h2.1l-1-2.4c0-0.1-0.1-0.1-0.1,0L114.8,37.7z"/>
	<path fill="#FFFFFF" d="M122.4,33.8c1.7,0,2.2,0.7,2.2,1.7c0,0.8-0.3,1.5-1.1,1.7l2.1,2.6c0,0,0,0.1-0.1,0.1h-0.7
		c-0.1,0-0.1,0-0.1-0.1l-2.1-2.5h-0.8c-0.1,0-0.1,0-0.1,0.1v2.4c0,0.1,0,0.1-0.1,0.1h-0.6c-0.1,0-0.1,0-0.1-0.1v-5.9
		c0-0.1,0-0.1,0.1-0.1H122.4z M121.8,36.5c0,0.1,0,0.1,0.1,0.1h0.6c1,0,1.4-0.3,1.4-1.1c0-0.8-0.5-1.1-1.4-1.1h-0.6
		c-0.1,0-0.1,0-0.1,0.1V36.5z"/>
	<path fill="#FFFFFF" d="M129.3,39.9C129.2,39.9,129.2,39.9,129.3,39.9l-0.1-5.4c0-0.1,0-0.1-0.1-0.1h-1.9c-0.1,0-0.1,0-0.1-0.1
		v-0.5c0-0.1,0-0.1,0.1-0.1h4.8c0.1,0,0.1,0,0.1,0.1v0.5c0,0.1,0,0.1-0.1,0.1h-1.9c-0.1,0-0.1,0-0.1,0.1v5.3c0,0.1,0,0.1-0.1,0.1
		H129.3z"/>
	<path fill="#FFFFFF" d="M134.5,33.8C134.5,33.8,134.5,33.8,134.5,33.8l3.1-0.1c0.1,0,0.1,0,0.1,0.1v0.5c0,0.1,0,0.1-0.1,0.1h-2.4
		c0,0,0,0,0,0v1.9c0,0,0,0,0,0h2.4c0.1,0,0.1,0,0.1,0.1v0.4c0,0.1,0,0.1-0.1,0.1h-2.4c0,0,0,0,0,0v2.1c0,0,0,0,0,0h2.4
		c0.1,0,0.1,0,0.1,0.1v0.4c0,0.1,0,0.1-0.1,0.1h-3c-0.1,0-0.1,0-0.1-0.1V33.8z"/>
	<path fill="#FFFFFF" d="M141.8,33.8c1.7,0,2.2,0.7,2.2,1.7c0,0.8-0.3,1.5-1.1,1.7l2.1,2.6c0,0,0,0.1-0.1,0.1h-0.7
		c-0.1,0-0.1,0-0.1-0.1l-2.1-2.5h-0.8c-0.1,0-0.1,0-0.1,0.1v2.4c0,0.1,0,0.1-0.1,0.1h-0.6c-0.1,0-0.1,0-0.1-0.1v-5.9
		c0-0.1,0-0.1,0.1-0.1H141.8z M141.2,36.5c0,0.1,0,0.1,0.1,0.1h0.6c1,0,1.4-0.3,1.4-1.1c0-0.8-0.5-1.1-1.4-1.1h-0.6
		c-0.1,0-0.1,0-0.1,0.1V36.5z"/>
</g>
<g>
	<path fill="#FFFFFF" d="M4.1,14.2c-1.9,0-3-0.5-3.4-0.8C0.3,13,0,11.5,0,10.2c0.1-0.3,0.6-0.3,0.8-0.1c0.4,1.3,1.8,3.2,3.5,3.2
		c1.5,0,2.2-1,2.2-2c0-1.6-1.5-2.6-2.8-3.2c-1.5-0.7-3.1-1.9-3.1-4c0-2.3,1.8-3.9,4.7-3.9c0.7,0,1.5,0.1,2.3,0.3
		c0.3,0.1,0.4,0.1,0.7,0.2c0.2,0.4,0.4,1.5,0.4,2.9C8.6,3.8,8.1,3.8,7.9,3.6c-0.3-1-1.2-2.5-2.7-2.5C3.9,1.1,3.2,2,3.2,3
		C3.2,3.9,4,4.8,5,5.3L6.3,6c1.3,0.7,2.9,1.8,2.9,4.1C9.2,12.6,7.2,14.2,4.1,14.2z"/>
	<path fill="#FFFFFF" d="M27.1,0.7c0,0.4,0.1,2,0.2,3.2c-0.1,0.2-0.6,0.3-0.8,0.1c-0.5-1.9-1.8-2.9-3.8-2.9c-2.3,0-4.7,1.9-4.7,6
		c0,4,2.3,6.2,4.8,6.2c2.5,0,3.6-1.8,4.1-3.1c0.2-0.2,0.6-0.1,0.8,0.1c-0.1,1.5-0.5,2.7-0.8,3.2c-1.1,0.3-2.5,0.8-4.1,0.8
		c-2,0-4-0.5-5.5-1.5c-1.5-1.1-2.6-2.8-2.6-5.3c0-2.5,1.1-4.2,2.5-5.4c1.4-1.2,3.5-1.8,5.6-1.8C25,0.2,26.5,0.7,27.1,0.7z"/>
	<path fill="#FFFFFF" d="M47.5,7.1c0,4.4-3,7.1-7.3,7.1c-4.1,0-7-2.7-7-6.9c0-4,3-7.1,7.2-7.1C44.6,0.2,47.5,3,47.5,7.1z M40.2,1.1
		c-2.5,0-3.8,2.3-3.8,5.7c0,2.5,0.9,6.4,4.2,6.4c2.7,0,3.7-2.6,3.7-5.9C44.3,3.9,42.7,1.1,40.2,1.1z"/>
	<path fill="#FFFFFF" d="M57.5,2c0-0.5,0-0.6-0.5-0.6h-1.3c-1.5,0-1.9,0.8-2.5,2.3c-0.2,0.1-0.6,0.1-0.8-0.2
		c0.4-1.4,0.5-2.7,0.7-3.4C53.3,0,53.4,0,53.5,0c0.1,0,0.2,0,0.3,0.1c0.1,0.3,0.2,0.4,1.7,0.4H63c1.3,0,1.6,0,1.8-0.4
		C64.9,0,65,0,65.1,0c0.1,0,0.3,0.1,0.3,0.1c-0.2,0.7-0.3,2.3-0.3,3.5c-0.1,0.2-0.6,0.2-0.8,0.1c-0.3-1.3-0.6-2.3-2.1-2.3H61
		c-0.5,0-0.5,0.1-0.5,0.6V11c0,1.9,0.1,2,1,2.2l0.8,0.1c0.1,0.1,0.1,0.6,0,0.7c-1.3,0-2.3-0.1-3.2-0.1c-1,0-2,0-3.4,0.1
		c-0.2-0.1-0.2-0.6,0-0.7l0.9-0.1c0.9-0.1,1-0.3,1-2.2V2z"/>
	<path fill="#FFFFFF" d="M75.5,2c0-0.5,0-0.6-0.5-0.6h-1.3c-1.5,0-1.9,0.8-2.5,2.3c-0.2,0.1-0.6,0.1-0.8-0.2
		c0.4-1.4,0.5-2.7,0.7-3.4C71.2,0,71.3,0,71.4,0c0.1,0,0.2,0,0.3,0.1c0.1,0.3,0.2,0.4,1.7,0.4h7.5c1.3,0,1.6,0,1.8-0.4
		C82.8,0,82.9,0,83,0c0.1,0,0.3,0.1,0.3,0.1C83.1,0.8,83,2.5,83,3.6c-0.1,0.2-0.6,0.2-0.8,0.1c-0.3-1.3-0.6-2.3-2.2-2.3h-1.2
		c-0.5,0-0.5,0.1-0.5,0.6V11c0,1.9,0.1,2,1,2.2l0.8,0.1c0.1,0.1,0.1,0.6,0,0.7c-1.3,0-2.3-0.1-3.2-0.1c-1,0-2,0-3.4,0.1
		c-0.2-0.1-0.2-0.6,0-0.7l0.9-0.1c0.9-0.1,1-0.3,1-2.2V2z"/>
</g>
<g>
	<path fill="#FFFFFF" d="M95.4,3.5c0-2.1,0-2.5-1.3-2.6l-0.5,0c-0.1-0.1-0.1-0.4,0-0.5c1.1,0,1.8,0.1,2.6,0.1c0.8,0,1.5,0,2.5-0.1
		c0.1,0.1,0.2,0.4,0,0.5l-0.5,0C97.1,1.1,97,1.4,97,3.5v7.1c0,1.3,0.1,1.8,0.4,2.2c0.2,0.2,0.6,0.5,2.2,0.5c1.7,0,2.1-0.1,2.5-0.3
		c0.4-0.2,0.9-1,1.3-2c0.1-0.1,0.5,0,0.5,0.1c0,0.2-0.6,2.3-0.9,2.8c-1,0-3-0.1-5.1-0.1h-1.9c-0.9,0-1.5,0-2.6,0.1
		c-0.1-0.1-0.2-0.4,0-0.5l0.6-0.1c1.2-0.1,1.2-0.4,1.2-2.5V3.5z"/>
	<path fill="#FFFFFF" d="M108.6,7.3c0-4.1,3-7.2,7.2-7.2c4.7,0,7,3.4,7,7c0,4.1-3.1,7.1-7,7.1C111.3,14.2,108.6,11,108.6,7.3z
		 M120.8,7.8c0-3.3-1.5-7-5.4-7c-2.1,0-4.8,1.4-4.8,5.9c0,3,1.5,6.9,5.5,6.9C118.5,13.6,120.8,11.8,120.8,7.8z"/>
	<path fill="#FFFFFF" d="M140.1,11.8c0,0.8,0.1,1.3,0.5,1.4c0.1,0.1,0.1,0.2,0,0.2c-0.2,0-0.6,0.1-1,0.2c-1.1,0.3-2.5,0.5-3.6,0.5
		c-2.4,0-4.6-0.7-6.2-2.3c-1.2-1.2-1.9-2.8-1.9-4.6c0-1.7,0.6-3.5,1.8-4.8c1.4-1.4,3.4-2.4,6.4-2.4c1.2,0,2.2,0.2,2.6,0.3
		c0.4,0.1,1,0.2,1.3,0.2c0,0.7,0.1,1.7,0.3,2.9c-0.1,0.2-0.4,0.2-0.5,0.1c-0.6-2.2-2.1-2.9-4.2-2.9c-3.9,0-5.7,2.8-5.7,5.8
		c0,3.9,2,7,6.1,7c1.3,0,2-0.3,2.2-0.6c0.1-0.1,0.2-0.5,0.2-1.2V11c0-1.7-0.1-1.8-1.3-2l-0.9-0.1c-0.2-0.1-0.1-0.4,0-0.5
		c0.6,0,1.7,0.1,2.9,0.1c0.8,0,1.5,0,2.2-0.1c0.1,0.1,0.2,0.4,0,0.5L141,9c-0.9,0.1-0.9,0.7-0.9,1.7V11.8z"/>
	<path fill="#FFFFFF" d="M148.8,3.6c0-2.1,0-2.5-1.2-2.6L147,1c-0.1-0.1-0.1-0.4,0-0.5c1,0,1.7,0.1,2.6,0.1c0.8,0,1.5,0,2.5-0.1
		c0.1,0.1,0.2,0.4,0,0.5l-0.5,0c-1.2,0.1-1.2,0.4-1.2,2.6v7.2c0,2.1,0,2.4,1.2,2.6l0.5,0.1c0.1,0.1,0.1,0.4,0,0.5
		c-1,0-1.7-0.1-2.5-0.1c-0.9,0-1.5,0-2.6,0.1c-0.1-0.1-0.2-0.4,0-0.5l0.5-0.1c1.2-0.1,1.2-0.4,1.2-2.6V3.6z"/>
	<path fill="#FFFFFF" d="M159.9,1.9c1.5-1.2,3.4-1.7,5.5-1.7c1.1,0,2.6,0.2,3.6,0.5c0.2,0.1,0.4,0.1,0.6,0.1c0,0.5,0.1,1.7,0.3,3
		c-0.1,0.1-0.4,0.2-0.5,0c-0.3-1.4-1.2-3-4.2-3c-3.1,0-5.7,2-5.7,6.2c0,4.3,2.7,6.6,6,6.6c2.6,0,3.8-1.7,4.2-2.9
		c0.1-0.1,0.4-0.1,0.5,0.1c-0.1,1.1-0.7,2.4-1,2.8c-0.2,0-0.5,0.1-0.7,0.2c-0.4,0.2-1.9,0.5-3.2,0.5c-1.8,0-3.6-0.4-5.1-1.4
		c-1.6-1.1-2.9-3-2.9-5.6C157.3,5,158.4,3.1,159.9,1.9z"/>
</g>
<rect x="0" y="23.4" fill="#FFFFFF" width="170.4" height="0.3"/>
</svg>
