<svg xmlns="http://www.w3.org/2000/svg" viewBox="0 0 399.625 278.362"><g fill="#EA3C86"><path d="M177.584 135.571c-1.476 0-2.802.39-3.978 1.291-1.176.9-1.764 2.594-1.764 3.594h10.98c0-1-.504-2.785-1.512-3.648-1.007-.864-2.249-1.237-3.726-1.237zM102.543 145.367c0 .937.36 1.738 1.08 2.229.72.492 1.722.782 3.006.782 1.283 0 2.603-.337 3.563-1.058.959-.72 1.637-1.67 1.637-2.894v-1.971h-4.931c-2.902.001-4.355 1.089-4.355 2.912zM386.76 127.749c-6.014 0-11.049 4.132-12.459 9.708h-95.959c-.926-76.073-62.87-137.457-139.16-137.457-76.869 0-139.182 62.313-139.182 139.182 0 76.867 62.313 139.181 139.182 139.181 75.772 0 137.4-60.552 139.141-135.906h95.719c.896 6.229 6.24 11.023 12.719 11.023 7.105 0 12.865-5.761 12.865-12.866-.001-7.106-5.761-12.865-12.866-12.865zm-322.196 23.707h-4.212l-5.292-17h-.288l-5.292 17h-4.212l-8.784-25h4.572l6.336 18.107 5.616-18.107h3.816l5.616 18.107 6.336-18.107h4.572l-8.784 25zm30.266 0h-5v-10.413c0-3.528-1.228-5.292-4.155-5.292-1.392 0-2.435.462-3.466 1.386-1.032.924-1.378 2.274-1.378 4.05v10.269h-4v-27h4v11.439c0-1.175 1.395-2.1 2.559-2.772 1.164-.671 2.392-1.008 3.736-1.008 2.16 0 4.141.66 5.473 1.98 1.332 1.32 2.232 3.228 2.232 5.724v11.637zm21 0h-4v-2.457c-2 1.896-3.726 2.844-6.389 2.844-1.993 0-3.651-.563-4.959-1.691-1.309-1.128-1.966-2.634-1.966-4.518s.693-3.066 2.085-4.002c1.392-.936 3.274-1.176 5.65-1.176h5.579v-1.177c0-2.544-1.596-3.816-4.427-3.816-1.776 0-3.713.648-5.633 1.944l-1.845-2.52c2.327-1.848 4.945-2.772 7.897-2.772 2.255 0 4.268.57 5.696 1.71 1.428 1.14 2.312 2.934 2.312 5.382v12.249zm12.184.387c-1.716 0-3.167-.594-4.379-1.781-1.212-1.188-1.805-2.791-1.805-4.807v-9.799h-2v-3h2v-6h4v6h5v3h-5v9.907c0 .912.242 1.638.723 2.178s1.153.81 2.018.81c.864 0 1.693-.419 2.485-1.26l1.656 2.844c-1.417 1.273-2.983 1.908-4.698 1.908zm35.816-.387h-4v-10.413c0-3.528-1.686-5.292-4.614-5.292-1.392 0-2.706.462-3.737 1.386-1.032.924-1.649 2.274-1.649 4.05v10.269h-4v-19h4v3.439c1-1.175 1.532-2.1 2.672-2.772 1.14-.671 2.366-1.008 3.686-1.008 2.16 0 4.109.66 5.441 1.98 1.332 1.32 2.201 3.228 2.201 5.724v11.637zm23-8h-14.987c.096 2 .732 2.657 1.908 3.51s2.52 1.35 4.032 1.35c2.399 0 4.224-.72 5.472-2.232l2.304 2.539c-2.064 2.136-4.752 3.212-8.064 3.212-2.688 0-4.974-.89-6.858-2.678-1.884-1.787-2.826-4.185-2.826-7.198 0-3.011.96-5.404 2.88-7.18 1.92-1.776 4.182-2.664 6.786-2.664 2.604 0 4.806.786 6.63 2.358 1.824 1.572 2.724 3.739 2.724 6.499v2.484zm15.577 8l-4.572-6.373-4.464 6.373h-4.716l6.804-9.68-6.444-9.32h4.932l4.104 6.3 4.248-6.3h4.788l-6.695 9.284 6.983 9.716h-4.968zm15.714.387c-1.716 0-3.221-.594-4.432-1.781-1.213-1.188-1.859-2.791-1.859-4.807v-9.799h-2v-3h2v-6h4v6h5v3h-5v9.907c0 .912.297 1.638.776 2.178.48.54 1.181.81 2.045.81s1.706-.419 2.497-1.26l1.664 2.844c-1.416 1.273-2.975 1.908-4.691 1.908zm15.84-.9c-.539.528-1.188.792-1.943.792s-1.41-.258-1.962-.774c-.553-.516-.828-1.14-.828-1.872 0-.731.27-1.361.81-1.89s1.188-.792 1.944-.792 1.409.258 1.962.773c.552.518.828 1.141.828 1.873s-.271 1.362-.811 1.89zm4.339-14.868c-.457.576-.805.984-1.044 1.224-.24.24-.559.546-.954.918-.396.372-.732.696-1.009.972-.275.276-.572.51-.74.702-.432.528-.723 1.272-.723 2.232v1.333h-4v-1.909c0-.96.154-1.674.383-2.142.229-.468.746-1.086 1.514-1.854l2.639-2.628c.552-.6.833-1.344.833-2.232 0-.888-.286-1.626-.861-2.214-.576-.588-1.318-.882-2.23-.882s-1.674.165-2.286.729-.965 1.132-1.061 2.132h-4.356c.239-2 1.074-3.692 2.502-4.905 1.428-1.211 3.21-1.759 5.346-1.759 2.137 0 3.876.612 5.221 1.776 1.344 1.165 2.016 2.805 2.016 4.893-.003 1.439-.398 2.655-1.19 3.614z"/></g><g><path fill="#F45896" d="M365.631 61.769c7.647-6.076 9.021-17.188 3.025-24.943-5.99-7.751-17.088-9.222-24.897-3.354l21.872 28.297z"/><path fill="#C471AF" d="M398.822 48.461c-3.757-9.018-14.068-13.376-23.165-9.729-9.096 3.646-13.545 13.917-10.03 23.036l33.195-13.307z"/><path fill="#B82B67" d="M365.639 61.762c6.253-4.975 8.301-13.316 5.551-20.433-5.973 4.74-8.438 12.965-5.566 20.429l.006.007.009-.003z"/><path fill="#CFDB71" d="M363.924 96.585c5.273-4.146 6.257-11.769 2.168-17.114-4.087-5.345-11.702-6.393-17.083-2.393l14.915 19.507z"/><path fill="#00C2C7" d="M386.76 87.568c-2.546-6.206-9.609-9.235-15.869-6.763-6.259 2.469-9.349 9.505-6.971 15.779l22.84-9.016z"/><path fill="#00A857" d="M363.931 96.581c4.31-3.395 5.746-9.114 3.884-14.01-4.117 3.233-5.841 8.872-3.896 14.006l.005.006.007-.002z"/><path fill="#FFDE50" d="M329.041 76.505c1.323-6.24-2.607-12.407-8.851-13.816-6.24-1.413-12.441 2.463-13.933 8.665l22.784 5.151z"/><path fill="#FDB462" d="M340.217 56.002c-5.642-2.979-12.645-.885-15.708 4.735-3.065 5.618-1.034 12.639 4.528 15.77l11.18-20.505z"/><path fill="#FF9F25" d="M329.041 76.5c1.078-5.106-1.359-10.158-5.703-12.598-1.035 4.871 1.145 10.038 5.694 12.602l.005.001.004-.005z"/><path fill="#757C88" d="M329.072 108.839c2.812-3.956 1.934-9.449-1.999-12.323-3.931-2.873-9.431-2.042-12.348 1.837l14.347 10.486z"/><path fill="#757C88" d="M343.077 97.904c-3.038-3.785-8.563-4.442-12.399-1.444-3.839 2.995-4.543 8.513-1.607 12.379l14.006-10.935z"/><path fill="#323946" d="M329.075 108.835c2.3-3.238 2.123-7.501-.171-10.519-2.196 3.087-2.236 7.354.163 10.519l.005.003.003-.003z"/><path fill="#757C88" d="M291.414 93.551c2.309-1.745 2.793-5.023 1.072-7.363-1.718-2.336-4.994-2.85-7.347-1.168l6.275 8.531z"/><path fill="#757C88" d="M301.334 89.846c-1.049-2.696-4.071-4.06-6.789-3.044-2.719 1.015-4.106 4.025-3.132 6.748l9.921-3.704z"/><path fill="#323946" d="M291.418 93.548c1.888-1.428 2.551-3.883 1.787-6.008-1.801 1.36-2.591 3.778-1.793 6.006l.002.003.004-.001z"/></g></svg>